<?xml version="1.0" encoding="utf-8"?>
<!-- Generator: Adobe Illustrator 22.1.0, SVG Export Plug-In . SVG Version: 6.00 Build 0)  -->
<svg version="1.1" xmlns="http://www.w3.org/2000/svg" xmlns:xlink="http://www.w3.org/1999/xlink" x="0px" y="0px"
	 viewBox="0 0 420 180" style="enable-background:new 0 0 420 180;" xml:space="preserve">
<style type="text/css">
	.st0{fill:#FFFFFF;}
	.st1{fill:#FFFFFF;stroke:#000000;stroke-width:0.5;}
	.st2{fill:#FFFFFF;stroke:#000000;stroke-width:0.5388;}
	.st3{fill:#8FD6FF;}
	.st4{stroke:#000000;stroke-width:0.625;stroke-linejoin:round;}
	.st5{fill:#E10000;}
	.st6{font-family:'Helvetica-Bold';}
	.st7{font-size:17.5px;}
	.st8{display:none;}
	.st9{fill:none;stroke:#000000;stroke-miterlimit:10;}
	.st10{enable-background:new    ;}
	.st11{display:inline;}
	.st12{font-family:'MicrosoftYaHeiUI';}
	.st13{font-size:13.5px;}
	.st14{font-size:13px;}
	.st15{display:inline;enable-background:new    ;}
	.st16{font-family:'KozGoPr6N-Regular-90ms-RKSJ-H';}
	.st17{font-family:'HelveticaNeue-Roman';}
</style>
<g id="svg8548" inkscape:version="0.91 r13725" sodipodi:docname="coordination.svg" xmlns:cc="http://creativecommons.org/ns#" xmlns:dc="http://purl.org/dc/elements/1.1/" xmlns:inkscape="http://www.inkscape.org/namespaces/inkscape" xmlns:rdf="http://www.w3.org/1999/02/22-rdf-syntax-ns#" xmlns:sodipodi="http://sodipodi.sourceforge.net/DTD/sodipodi-0.dtd" xmlns:svg="http://www.w3.org/2000/svg">
	
		<sodipodi:namedview  bordercolor="#666666" borderopacity="1.0" fit-margin-bottom="0" fit-margin-left="0" fit-margin-right="0" fit-margin-top="0" id="base" inkscape:current-layer="layer6" inkscape:cx="132.31725" inkscape:cy="62.403465" inkscape:document-units="px" inkscape:pageopacity="0.0" inkscape:pageshadow="2" inkscape:window-height="897" inkscape:window-maximized="1" inkscape:window-width="1536" inkscape:window-x="-8" inkscape:window-y="-8" inkscape:zoom="0.98994949" pagecolor="#ffffff" showgrid="false" units="px">
		</sodipodi:namedview>
	<g id="layer6" inkscape:groupmode="layer" inkscape:label="Background">
		<rect id="rect9544" x="-6.1" y="-2.8" class="st0" width="438.4" height="191.9"/>
	</g>
	<g id="layer1" transform="translate(-50.257633,-628.15522)" inkscape:groupmode="layer" inkscape:label="Layer 1">
		<g id="g9517" transform="translate(7.2144097,-7.9276402)">
			
				<ellipse id="path9108" transform="matrix(3.327793e-02 -0.9994 0.9994 3.327793e-02 -640.085 781.3222)" class="st1" cx="83.8" cy="721.5" rx="33.3" ry="33.3"/>
			<circle id="circle9116" class="st1" cx="422.2" cy="774.6" r="33.3"/>
			<g id="g9126" transform="translate(82.832509,1.0101525)">
				<circle id="circle9114" class="st1" cx="337.4" cy="676.6" r="33.3"/>
			</g>
			<g id="g9151">
				<rect id="rect9131" x="207.9" y="666.5" class="st2" width="86.8" height="110.1"/>
				<rect id="rect9142" x="208.5" y="720.8" class="st3" width="85.5" height="18.1"/>
			</g>
			<path id="path5424" inkscape:connector-curvature="0" class="st4" d="M192.9,721.5l12,4.4l-12,4.4
				C194.8,727.7,194.8,724.2,192.9,721.5z"/>
			<path id="path9159" inkscape:connector-curvature="0" class="st4" d="M203.6,725.9"/>
			<path id="path9195" inkscape:connector-curvature="0" class="st4" d="M320.1,722.4l-11.8,2.3l7.5-9.4
				C315.6,718.3,317.3,721.2,320.1,722.4z"/>
			<path id="path9185" inkscape:connector-curvature="0" sodipodi:nodetypes="cc" class="st4" d="M309.4,724"/>
			<path id="path9231" inkscape:connector-curvature="0" class="st4" d="M316.3,740.3l-7.9-9l11.9,1.7
				C317.5,734.3,315.9,737.3,316.3,740.3z"/>
			<path id="path9221" inkscape:connector-curvature="0" sodipodi:nodetypes="cc" class="st4" d="M309.5,731.9"/>
			<text transform="matrix(1 0 0 1 295.4696 735.1743)" class="st5 st6 st7">?</text>
		</g>
	</g>
</g>
<g id="Layer_2" class="st8">
	<image style="display:inline;overflow:visible;" width="420" height="180" xlink:href="1A94D7A6.jpg" >
	</image>
</g>
<g id="Layer_3">
	<line class="st9" x1="81.3" y1="90" x2="153" y2="90"/>
	<line class="st9" x1="274.1" y1="83.9" x2="336.8" y2="45.6"/>
	<line class="st9" x1="274.1" y1="99.9" x2="336.8" y2="134"/>
</g>
<g id="outline">
	<g class="st10">
		<path d="M198.9,43.4c0.1,0.4,0.2,0.8,0.3,1.2c-0.9,0.6-1.8,1.2-2.6,1.9c-0.2,0.2-0.5,0.4-0.8,0.7l-0.8-0.8
			c0.3-0.3,0.5-0.8,0.5-1.4v-4.6h-1.9v-1h3v5.7C197.2,44.7,198,44.2,198.9,43.4z M195.2,35.2c0.9,0.8,1.7,1.5,2.4,2.2l-0.9,0.8
			c-0.6-0.7-1.4-1.5-2.2-2.3L195.2,35.2z M198.3,36h8.4v1h-3v8.8c0,1.2-0.6,1.8-1.8,1.8c-0.6,0-1.4,0-2.4,0
			c-0.1-0.3-0.1-0.7-0.2-1.2c0.9,0.1,1.6,0.1,2.3,0.1c0.7,0,1-0.3,1-1V37h-4.3V36z"/>
		<path d="M206.8,44.2h6v-1.5h-3.7v0.6h-1V37h2.7c-0.4-0.5-0.9-1-1.4-1.5l0.8-0.6c0.7,0.6,1.2,1.2,1.7,1.7l-0.5,0.4h3.1
			c0.5-0.6,1-1.3,1.5-2.1l1.1,0.6c-0.5,0.5-0.9,1.1-1.3,1.5h2.7v6.4h-1v-0.6h-3.7v1.5h6v0.9h-6V48h-1v-2.8h-6V44.2z M209.1,39.4h3.7
			v-1.5h-3.7V39.4z M209.1,41.8h3.7v-1.5h-3.7V41.8z M217.5,37.9h-3.7v1.5h3.7V37.9z M213.8,41.8h3.7v-1.5h-3.7V41.8z"/>
	</g>
	<g class="st10">
		<path d="M92,98.8L91.8,99c1.1,1,2.2,2.1,3.2,3.1l-0.7,0.8c-0.9-1-1.9-2.1-3-3.1c-0.9,1.4-1.7,2.5-2.7,3.4h5.4
			c-0.1,1.2-0.1,2.1-0.1,2.6c0,1.3-0.6,2-1.8,2c-0.5,0-1,0-1.7,0c-0.1-0.4-0.1-0.7-0.2-1.1c0.6,0.1,1.2,0.1,1.7,0.2
			c0.6,0,1-0.4,1-1.2c0-0.4,0.1-0.9,0.1-1.5h-3.5v5.3c0,0.5,0.3,0.7,0.8,0.7h2.2c0.7,0,1.1-0.2,1.2-0.7c0.1-0.4,0.2-0.9,0.2-1.6
			c0.3,0.1,0.7,0.3,1,0.4c-0.1,0.6-0.2,1.1-0.3,1.6c-0.2,0.8-0.8,1.2-1.9,1.2h-2.6c-1.1,0-1.6-0.5-1.6-1.6v-6.1
			c-0.3,0.3-0.6,0.5-0.8,0.7c-0.3-0.4-0.5-0.7-0.6-0.9c1.4-1.1,2.7-2.6,3.7-4.5H92z M98.3,98.9h1.1v11c0,1.1-0.5,1.6-1.6,1.6
			c-0.4,0-1.1,0-2.1,0c0-0.4-0.1-0.8-0.2-1.2c0.9,0.1,1.6,0.1,2,0.1c0.6,0,0.9-0.3,0.9-0.8V98.9z M96.6,108.1h-1V100h1V108.1z"/>
		<path d="M101.3,105.5c0.3,1.1,0.6,2,1.1,2.6c0.5-1,0.8-2.1,0.9-3.3h-2.6v-1l2.4-3h-2.7v-0.9h3.9v0.9l-2.5,3.1h2.5v0.8
			c-0.2,1.6-0.6,3-1.2,4.2c1,0.8,2.4,1.3,4.5,1.3c1.7,0,3.6,0,5.8-0.1c-0.1,0.4-0.3,0.7-0.4,1c-2,0-4,0-5.8,0c-2,0-3.5-0.5-4.5-1.4
			c-0.5,0.7-1.1,1.3-1.8,1.9c-0.1-0.3-0.3-0.5-0.5-0.9c0.7-0.5,1.2-1.1,1.7-1.8c-0.6-0.7-1.1-1.8-1.5-3.2L101.3,105.5z M104.4,107.7
			h3.4v-1.1h-2.9v-0.8h2.9v-1.1h-2.7v-0.8h2.7v-1.1h-3.4v-0.8h3.4v-1.1h-2.7v-0.8h2.7v-1.3h1v1.3h3.1v1.9h1.4v0.8h-1.4v2.3h-0.9
			v-0.4h-2.1v1.1h3.3v0.8h-3.3v1.1h3.9v0.8h-3.9v1.4h-1v-1.4h-3.4V107.7z M110.9,100.7h-2.1v1.1h2.1V100.7z M108.8,103.8h2.1v-1.1
			h-2.1V103.8z"/>
		<path d="M118.8,107.1c0.1,0.4,0.2,0.8,0.3,1.2c-0.9,0.6-1.8,1.2-2.6,1.9c-0.2,0.2-0.5,0.4-0.8,0.7l-0.8-0.8
			c0.3-0.3,0.5-0.8,0.5-1.4v-4.6h-1.9v-1h3v5.7C117,108.4,117.8,107.8,118.8,107.1z M115,98.8c0.9,0.8,1.7,1.5,2.4,2.2l-0.9,0.8
			c-0.6-0.7-1.4-1.5-2.2-2.3L115,98.8z M118.1,99.7h8.4v1h-3v8.8c0,1.2-0.6,1.8-1.8,1.8c-0.6,0-1.4,0-2.4,0
			c-0.1-0.3-0.1-0.7-0.2-1.2c0.9,0.1,1.6,0.1,2.3,0.1c0.7,0,1-0.3,1-1v-8.5h-4.3V99.7z"/>
		<path d="M126.6,107.9h6v-1.5H129v0.6h-1v-6.4h2.7c-0.4-0.5-0.9-1-1.4-1.5l0.8-0.6c0.7,0.6,1.2,1.2,1.7,1.7l-0.5,0.4h3.1
			c0.5-0.6,1-1.3,1.5-2.1l1.1,0.6c-0.5,0.5-0.9,1.1-1.3,1.5h2.7v6.4h-1v-0.6h-3.7v1.5h6v0.9h-6v2.8h-1v-2.8h-6V107.9z M129,103.1
			h3.7v-1.5H129V103.1z M129,105.5h3.7V104H129V105.5z M137.3,101.6h-3.7v1.5h3.7V101.6z M133.6,105.5h3.7V104h-3.7V105.5z"/>
	</g>
	<g class="st10">
		<path d="M285.7,84.2c-0.2,0.8-0.4,1.6-0.6,2.4h3.4v0.9c-0.2,2.2-0.9,4.1-1.9,5.7c0.8,0.9,1.7,1.4,2.8,1.6c1.3,0.2,3.2,0.3,5.7,0.2
			c-0.1,0.3-0.3,0.7-0.4,1.1c-2.3,0.1-4.1,0-5.4-0.3c-1.3-0.2-2.4-0.8-3.3-1.7c-0.7,1-1.6,1.8-2.7,2.6c-0.3-0.3-0.6-0.5-0.8-0.7
			c1.1-0.8,2.1-1.7,2.8-2.6c-0.6-0.9-1.1-2-1.4-3.4c-0.3,0.6-0.5,1.1-0.8,1.7c-0.2-0.2-0.4-0.5-0.7-0.9c1-1.9,1.8-4,2.3-6.6
			L285.7,84.2z M287.4,87.5h-2.7c-0.1,0.3-0.2,0.6-0.3,0.9c0.3,1.6,0.8,2.9,1.5,3.9C286.8,90.9,287.3,89.3,287.4,87.5z M290,84.1
			h1.1v4.3l0.6-0.6c1.2,0.8,2.3,1.6,3.3,2.4l-0.7,0.9c-0.9-0.8-1.9-1.6-3.1-2.5v6H290V84.1z"/>
		<path d="M295,94.3c0.7-0.2,1.3-0.3,1.9-0.5V90h-1.6v-0.9h1.6V86h-1.7v-0.9h4.4V86h-1.7v3.2h1.6V90h-1.6v3.6
			c0.6-0.2,1.1-0.3,1.6-0.5c0,0.4,0.1,0.7,0.1,1c-1.4,0.4-2.9,0.8-4.3,1.2L295,94.3z M299,95.1h4v-1.8h-3.2v-0.9h3.2v-1.7h-2v0.5
			H300v-6.6h6.9v6.6H306v-0.5h-2v1.7h3.2v0.9h-3.2v1.8h3.8V96H299V95.1z M301,87.2h2v-1.8h-2V87.2z M301,89.8h2v-1.8h-2V89.8z
			 M306,85.5h-2v1.8h2V85.5z M303.9,89.8h2v-1.8h-2V89.8z"/>
		<path d="M312.9,92.1c0.1,0.4,0.2,0.8,0.3,1.1c-0.8,0.6-1.7,1.2-2.6,1.8c-0.2,0.2-0.5,0.4-0.7,0.7l-0.8-0.8
			c0.3-0.3,0.5-0.8,0.5-1.3v-4.4h-1.8v-1h2.9v5.5C311.2,93.4,312,92.8,312.9,92.1z M309.3,84.2c0.8,0.7,1.6,1.5,2.3,2.1l-0.8,0.8
			c-0.6-0.7-1.3-1.5-2.2-2.2L309.3,84.2z M312.3,85h8.1v1h-2.9v8.5c0,1.2-0.6,1.7-1.7,1.7c-0.6,0-1.4,0-2.3,0
			c-0.1-0.3-0.1-0.7-0.2-1.2c0.8,0.1,1.6,0.1,2.2,0.1c0.6,0,1-0.3,1-1v-8.2h-4.2V85z"/>
		<path d="M320.5,92.9h5.8v-1.4h-3.5v0.6h-1v-6.2h2.6c-0.4-0.5-0.8-1-1.3-1.5l0.7-0.6c0.6,0.6,1.2,1.2,1.7,1.7l-0.5,0.4h3
			c0.5-0.6,0.9-1.3,1.4-2l1,0.5c-0.4,0.5-0.9,1-1.3,1.5h2.6v6.2h-1v-0.6h-3.5v1.4h5.8v0.9h-5.8v2.7h-1v-2.7h-5.8V92.9z M322.7,88.2
			h3.5v-1.4h-3.5V88.2z M322.7,90.6h3.5v-1.5h-3.5V90.6z M330.8,86.8h-3.5v1.4h3.5V86.8z M327.2,90.6h3.5v-1.5h-3.5V90.6z"/>
	</g>
	<g class="st10">
		<path d="M348.2,41h1.5v-2.7h0.9V41h1.3v0.8h-1.3v1.7c0.5-0.1,1-0.1,1.6-0.2c0,0.3-0.1,0.6-0.1,0.9c-0.4,0-0.9,0.1-1.5,0.2v2.8
			h-0.9v-2.7c-0.8,0.1-1.6,0.2-2.6,0.3l-0.1-0.9c0.9-0.1,1.8-0.2,2.7-0.3v-1.8h-2.4V41c0.5-1.3,0.9-2.5,1.2-3.5h-1.4v-0.8h1.6
			c0.2-0.8,0.4-1.4,0.5-2l1,0.2c-0.1,0.5-0.3,1.1-0.6,1.8h2.2v0.8h-2.5C349,38.5,348.6,39.7,348.2,41z M353.2,47.2h-0.9v-8.4h2.8
			v-1.2h-3v-0.8h3v-1.9h0.9v1.9h3.5v0.8H356v1.2h2.9v7c0,0.8-0.4,1.3-1.1,1.3c-0.4,0-0.8,0-1.2,0c-0.1-0.3-0.1-0.6-0.2-1
			c0.4,0.1,0.7,0.1,1.1,0.1c0.4,0,0.6-0.2,0.6-0.6v-1.3h-2V47h-0.9v-2.8h-1.9V47.2z M353.2,41.1h1.9v-1.5h-1.9V41.1z M353.2,43.5
			h1.9v-1.5h-1.9V43.5z M358,39.6h-2v1.5h2V39.6z M356,43.5h2v-1.5h-2V43.5z M357.1,34.7c0.6,0.4,1.2,0.8,1.6,1.2
			c-0.2,0.2-0.4,0.4-0.6,0.7c-0.5-0.5-1-0.9-1.5-1.3L357.1,34.7z"/>
		<path d="M366.1,43.1l0.1,0.8c-2.1,0.5-4.4,1-5.8,1.3c0,0.1-0.1,0.2-0.2,0.2l-0.4-1l1-0.2v-8.9h4.2v8.1L366.1,43.1z M364.2,36h-2.6
			v2h2.6V36z M364.2,40.9v-2h-2.6v2H364.2z M361.6,41.7V44l2.6-0.5v-1.8H361.6z M371.1,37.8l0.5,0c0,0.1,0,0.2,0,0.3
			c-0.1,5.7-0.3,7.5-0.7,8.1c-0.4,0.5-0.8,0.5-1.5,0.5c-0.4,0-0.9,0-1.4-0.1c0-0.2-0.1-0.6-0.3-0.8c0.8,0.1,1.5,0.1,1.8,0.1
			c0.3,0,0.4,0,0.5-0.2c0.3-0.4,0.5-2.1,0.6-7.1h-2.2c-0.2,3.3-1,6.3-3.8,8.1c-0.1-0.2-0.4-0.5-0.6-0.6c2.6-1.5,3.3-4.3,3.5-7.4h-2
			v-0.8h2c0-1,0-2.1,0-3.2l1.2,0.1c0,0.1-0.1,0.2-0.3,0.2c0,1,0,1.9,0,2.9H371.1z"/>
		<path d="M383.5,37.6v7.9c0,0.6-0.2,0.9-0.6,1c-0.5,0.1-1.3,0.2-2.7,0.2c-0.1-0.2-0.2-0.6-0.4-0.9c0.7,0,1.3,0,1.7,0
			c1,0,1.1,0,1.1-0.4v-1.8H375c-0.3,1.1-0.9,2.1-2,3c-0.1-0.2-0.4-0.5-0.6-0.6c1.9-1.5,2.1-3.5,2.1-5.2v-2.4
			c-0.4,0.3-0.7,0.6-1.1,0.9c-0.2-0.2-0.4-0.5-0.7-0.6c1.8-1.2,3.1-2.9,3.8-4.2l1.1,0.2c0,0.1-0.1,0.2-0.3,0.2l-0.3,0.5h3.4l0.1-0.1
			l0.7,0.4c0,0.1-0.1,0.1-0.2,0.1c-0.3,0.5-0.7,1.2-1.2,1.8H383.5z M378.5,41h-3.1c0,0.6-0.1,1.3-0.2,2h3.2V41z M378.9,37.6
			c0.4-0.4,0.7-1,1-1.5h-3.3c-0.4,0.5-0.8,1-1.2,1.5H378.9z M375.4,38.4v1.9h3.1v-1.9H375.4z M382.6,40.2v-1.9h-3.3v1.9H382.6z
			 M379.3,43h3.3v-2h-3.3V43z"/>
		<path d="M387.7,44.6c0,0.8,0.3,1,1.7,1h5.3c1.3,0,1.5-0.4,1.7-2c0.2,0.2,0.6,0.3,0.9,0.3c-0.2,1.9-0.6,2.5-2.5,2.5h-5.3
			c-2.1,0-2.7-0.4-2.7-1.9v-5.9c-0.3,0.3-0.7,0.6-1,0.8c-0.1-0.2-0.4-0.5-0.7-0.6c1.8-1.3,3.2-3,3.9-4.4l1.2,0.2
			c0,0.1-0.1,0.2-0.3,0.2c-0.1,0.2-0.2,0.4-0.4,0.6h3.4l0.1-0.1l0.7,0.4c0,0.1-0.1,0.1-0.2,0.1c-0.3,0.6-0.7,1.3-1.2,1.9h3.8v4.8
			h-0.9V42h-7.7V44.6z M387.7,38.6v2.5h3.3v-2.5H387.7z M391.4,37.8c0.4-0.4,0.8-1,1.1-1.6H389c-0.4,0.5-0.8,1.1-1.3,1.6H391.4z
			 M395.3,41.2v-2.5h-3.5v2.5H395.3z"/>
		<path d="M405.4,45.6h-1.1v-6.6h-2.4v-0.9c0.3,0,0.6,0,0.9-0.1s0.6-0.1,0.8-0.3s0.4-0.3,0.6-0.5c0.2-0.2,0.3-0.5,0.3-0.9h0.8V45.6z
			"/>
	</g>
	<g class="st10">
		<path d="M349.8,138.1h1.5v-2.7h0.9v2.7h1.3v0.8h-1.3v1.7c0.5-0.1,1-0.1,1.6-0.2c0,0.3-0.1,0.6-0.1,0.9c-0.4,0-0.9,0.1-1.5,0.2v2.8
			h-0.9v-2.7c-0.8,0.1-1.6,0.2-2.6,0.3l-0.1-0.9c0.9-0.1,1.8-0.2,2.7-0.3V139h-2.4v-0.8c0.5-1.3,0.9-2.5,1.2-3.5h-1.4v-0.8h1.6
			c0.2-0.8,0.4-1.4,0.5-2l1,0.2c-0.1,0.5-0.3,1.1-0.6,1.8h2.2v0.8H351C350.7,135.6,350.3,136.8,349.8,138.1z M354.9,144.3h-0.9v-8.4
			h2.8v-1.2h-3v-0.8h3v-1.9h0.9v1.9h3.5v0.8h-3.5v1.2h2.9v7c0,0.8-0.4,1.3-1.1,1.3c-0.4,0-0.8,0-1.2,0c-0.1-0.3-0.1-0.6-0.2-1
			c0.4,0.1,0.7,0.1,1.1,0.1c0.4,0,0.6-0.2,0.6-0.6v-1.3h-2v2.8h-0.9v-2.8h-1.9V144.3z M354.9,138.3h1.9v-1.5h-1.9V138.3z
			 M354.9,140.6h1.9V139h-1.9V140.6z M359.7,136.7h-2v1.5h2V136.7z M357.7,140.6h2V139h-2V140.6z M358.8,131.9
			c0.6,0.4,1.2,0.8,1.6,1.2c-0.2,0.2-0.4,0.4-0.6,0.7c-0.5-0.5-1-0.9-1.5-1.3L358.8,131.9z"/>
		<path d="M367.5,134.6h1.5c0-0.9,0-1.7,0-2.6h1c0,0.9,0,1.7,0,2.6h3.2c-0.1,4.1-0.2,6.6-0.3,7.5c-0.1,1.3-0.7,2-1.8,2
			c-0.3,0-0.9,0-1.7-0.1c-0.1-0.4-0.1-0.8-0.2-1.1c0.7,0.1,1.3,0.1,1.8,0.1c0.5,0,0.8-0.4,0.9-1.1c0.1-1.1,0.1-3.2,0.2-6.5H370
			c0,2.1-0.2,3.7-0.4,4.7c-0.4,1.7-1.2,3-2.5,4.2c-0.2-0.3-0.4-0.6-0.6-0.9c0.5-0.4,0.9-0.8,1.2-1.3c-1.9,0.3-3.9,0.6-6.2,0.9
			l-0.2-1c0.4,0,0.7-0.1,1.1-0.1v-9.2h4.5v8.7c0.3,0,0.6-0.1,0.9-0.1c0,0.2,0,0.5,0,0.8c0.4-0.6,0.7-1.3,0.9-2.1
			c0.2-0.9,0.4-2.4,0.4-4.5h-1.4V134.6z M365.9,133.6h-2.6v2.1h2.6V133.6z M363.3,138.7h2.6v-2.1h-2.6V138.7z M365.9,141.5v-2h-2.6
			v2.4C364.2,141.8,365,141.7,365.9,141.5z"/>
		<path d="M374,136c1.6-1.2,2.9-2.6,3.8-4.3l1,0.3c-0.2,0.3-0.4,0.6-0.6,0.9h5.1v0.9c-0.4,0.4-0.8,0.9-1.2,1.3h3.5v7.4
			c0,1-0.5,1.6-1.5,1.6c-0.5,0-1.2,0-1.8,0c-0.1-0.3-0.1-0.7-0.2-1c0.6,0,1.1,0.1,1.6,0.1c0.6,0,0.8-0.3,0.8-0.8v-1.3H381v2.9h-1
			v-2.9h-3.6c-0.3,1.4-0.7,2.6-1.4,3.3c-0.2-0.3-0.5-0.6-0.8-0.9c0.9-1,1.4-2.6,1.4-5.1v-2.7c-0.3,0.3-0.6,0.5-0.9,0.8
			C374.5,136.5,374.3,136.3,374,136z M382,133.8h-4.5c-0.4,0.5-0.8,0.9-1.2,1.3h4.5C381.3,134.7,381.7,134.2,382,133.8z
			 M376.6,140.3h3.4v-1.7h-3.4C376.6,139.2,376.6,139.8,376.6,140.3z M376.6,136.1v1.7h3.4v-1.7H376.6z M384.6,136.1H381v1.7h3.5
			V136.1z M381,140.3h3.5v-1.7H381V140.3z"/>
		<path d="M386.6,136.1c1.7-1.3,3-2.7,3.9-4.3l1.1,0.3c-0.2,0.4-0.5,0.7-0.7,1.1h5v0.9c-0.5,0.6-1,1.1-1.5,1.7h3.4v4.6h-1v-0.4h-7.6
			v2.2c0,0.6,0.3,0.9,0.8,0.9h6.9c0.6,0,0.9-0.2,1-0.5c0.2-0.5,0.3-1.2,0.3-1.9c0.2,0.1,0.6,0.2,1,0.4c-0.1,0.8-0.2,1.4-0.4,1.8
			c-0.2,0.8-0.8,1.2-1.9,1.2h-7.2c-1.1,0-1.7-0.6-1.7-1.7v-6.1c-0.2,0.2-0.5,0.4-0.8,0.7C387.1,136.5,386.9,136.3,386.6,136.1z
			 M394.6,134h-4.4c-0.5,0.6-1,1.1-1.6,1.7h4.6C393.6,135.1,394.1,134.5,394.6,134z M389.2,138.9h3.3v-2.4h-3.3V138.9z M396.8,136.6
			h-3.3v2.4h3.3V136.6z"/>
		<path d="M408.1,135.4c0-0.5-0.2-0.9-0.5-1.2c-0.3-0.3-0.8-0.5-1.4-0.5c-0.4,0-0.8,0.1-1.2,0.3c-0.4,0.2-0.8,0.5-1.2,0.9v-1.2
			c0.3-0.3,0.7-0.6,1.1-0.8s0.9-0.3,1.4-0.3c0.9,0,1.6,0.2,2.1,0.7c0.5,0.5,0.8,1.1,0.8,1.9c0,0.7-0.2,1.3-0.5,1.9s-0.9,1.1-1.7,1.6
			c-0.8,0.6-1.4,1-1.6,1.2s-0.5,0.5-0.6,0.7c-0.1,0.2-0.2,0.5-0.2,0.8h4.9v1.1h-6.2v-0.5c0-0.6,0.1-1,0.2-1.4
			c0.2-0.4,0.4-0.8,0.8-1.2c0.4-0.4,0.9-0.8,1.7-1.3c0.8-0.5,1.3-1,1.6-1.4S408.1,135.9,408.1,135.4z"/>
	</g>
	<g>
		<path d="M178.2,95.4c0.1,0.4,0.2,0.8,0.3,1.2c-0.9,0.6-1.8,1.2-2.7,1.9c-0.2,0.2-0.5,0.4-0.8,0.7l-0.8-0.8
			c0.3-0.3,0.5-0.8,0.5-1.4v-4.6h-1.9v-1h3v5.7C176.5,96.7,177.3,96.2,178.2,95.4z M174.4,87.2c0.9,0.8,1.7,1.5,2.4,2.2l-0.9,0.8
			c-0.6-0.7-1.4-1.5-2.2-2.3L174.4,87.2z M177.6,88h8.4v1h-3v8.8c0,1.2-0.6,1.8-1.8,1.8c-0.6,0-1.4,0-2.4,0
			c-0.1-0.3-0.1-0.7-0.2-1.2c0.9,0.1,1.6,0.1,2.3,0.1c0.7,0,1-0.3,1-1V89h-4.3V88z"/>
		<path d="M186.1,96.2h6v-1.5h-3.7v0.6h-1V89h2.7c-0.4-0.5-0.9-1-1.4-1.5l0.8-0.6c0.6,0.6,1.2,1.2,1.7,1.7l-0.5,0.4h3.1
			c0.5-0.6,1-1.3,1.5-2.1l1.1,0.6c-0.5,0.5-0.9,1.1-1.3,1.5h2.7v6.4h-1v-0.6h-3.7v1.5h6v0.9h-6v2.8h-1v-2.8h-6V96.2z M188.4,91.4
			h3.7v-1.5h-3.7V91.4z M188.4,93.8h3.7v-1.5h-3.7V93.8z M196.8,89.9h-3.7v1.5h3.7V89.9z M193.1,93.8h3.7v-1.5h-3.7V93.8z"/>
		<path d="M204.2,95.4h-1.3v-0.9h1.4l0.3-2h-1.4v-0.9h1.5l0.4-2.8h0.9l-0.4,2.8h1.7l0.4-2.8h0.9l-0.4,2.8h1.2v0.9h-1.3l-0.3,2h1.2
			v0.9h-1.4l-0.4,2.8h-0.9l0.4-2.8h-1.7l-0.4,2.8h-0.9L204.2,95.4z M205.5,92.4l-0.3,2h1.7l0.3-2H205.5z"/>
		<path d="M214.4,98.2h-1.1v-6.9h-2.5v-0.9c0.3,0,0.6,0,0.9-0.1c0.3,0,0.6-0.1,0.8-0.3c0.2-0.1,0.5-0.3,0.6-0.6
			c0.2-0.2,0.3-0.5,0.4-0.9h0.9V98.2z"/>
		<path d="M217.3,92c0-0.5,0-0.9,0.2-1.4c0.1-0.4,0.3-0.8,0.6-1.1c0.3-0.3,0.6-0.5,1-0.7c0.4-0.2,0.8-0.3,1.3-0.3
			c0.4,0,0.8,0.1,1.2,0.2c0.4,0.1,0.7,0.3,1,0.5c0.3,0.2,0.5,0.5,0.6,0.9c0.2,0.3,0.2,0.7,0.2,1.2c0,0.4-0.1,0.8-0.2,1.1
			c-0.1,0.3-0.3,0.6-0.5,0.9c-0.2,0.3-0.5,0.5-0.7,0.7s-0.6,0.4-0.9,0.6c-0.3,0.2-0.6,0.4-0.9,0.5s-0.6,0.4-0.8,0.6
			c-0.2,0.2-0.5,0.4-0.6,0.6c-0.2,0.2-0.3,0.5-0.3,0.8h4.9v1h-6.3c0-0.6,0.1-1.1,0.3-1.5s0.4-0.7,0.6-1c0.2-0.3,0.5-0.6,0.8-0.8
			s0.6-0.4,1-0.6c0.4-0.3,0.8-0.5,1.1-0.7c0.3-0.2,0.6-0.4,0.8-0.6c0.2-0.2,0.4-0.4,0.5-0.7s0.2-0.5,0.2-0.9c0-0.3,0-0.5-0.1-0.7
			c-0.1-0.2-0.2-0.4-0.4-0.5c-0.2-0.2-0.4-0.3-0.6-0.4c-0.2-0.1-0.5-0.1-0.7-0.1c-0.3,0-0.6,0.1-0.9,0.2s-0.4,0.3-0.6,0.5
			c-0.2,0.2-0.3,0.5-0.3,0.8c-0.1,0.3-0.1,0.6-0.1,0.9H217.3z"/>
		<path d="M226.9,92.7c0.1,0,0.2,0,0.3,0s0.2,0,0.2,0c0.2,0,0.5,0,0.7-0.1c0.2-0.1,0.4-0.2,0.6-0.3c0.2-0.1,0.3-0.3,0.4-0.5
			c0.1-0.2,0.1-0.4,0.1-0.7c0-0.5-0.2-0.9-0.5-1.1c-0.3-0.3-0.7-0.4-1.2-0.4c-0.3,0-0.6,0.1-0.8,0.2c-0.2,0.1-0.4,0.3-0.6,0.5
			c-0.1,0.2-0.3,0.4-0.3,0.7c-0.1,0.3-0.1,0.5-0.1,0.8h-1.1c0-0.5,0.1-0.9,0.2-1.3s0.3-0.7,0.6-1c0.2-0.3,0.5-0.5,0.9-0.6
			s0.8-0.2,1.3-0.2c0.4,0,0.8,0.1,1.2,0.2s0.7,0.3,0.9,0.5c0.3,0.2,0.5,0.5,0.6,0.8c0.1,0.3,0.2,0.7,0.2,1.1c0,0.4-0.1,0.8-0.4,1.1
			c-0.3,0.3-0.6,0.6-0.9,0.8v0c0.6,0.1,1,0.4,1.3,0.8c0.3,0.4,0.4,0.9,0.4,1.5c0,0.5-0.1,0.9-0.3,1.3c-0.2,0.4-0.4,0.7-0.7,0.9
			c-0.3,0.2-0.6,0.4-1,0.6c-0.4,0.1-0.8,0.2-1.3,0.2c-0.5,0-0.9-0.1-1.3-0.2c-0.4-0.1-0.7-0.3-1-0.6c-0.3-0.3-0.5-0.6-0.6-1
			c-0.1-0.4-0.2-0.8-0.2-1.3h1.1c0,0.6,0.2,1.1,0.5,1.5c0.3,0.4,0.8,0.6,1.5,0.6c0.3,0,0.5,0,0.8-0.1c0.3-0.1,0.5-0.2,0.7-0.4
			c0.2-0.2,0.3-0.4,0.5-0.6s0.2-0.5,0.2-0.8c0-0.3-0.1-0.6-0.2-0.8c-0.1-0.2-0.3-0.4-0.4-0.6c-0.2-0.2-0.4-0.3-0.6-0.4
			c-0.3-0.1-0.5-0.1-0.8-0.1c-0.2,0-0.5,0-0.7,0V92.7z"/>
	</g>
</g>
<g id="text" class="st8">
	<text transform="matrix(1 0 0 1 193.3841 46.1665)" class="st11 st12 st13">订单</text>
	<text transform="matrix(1 0 0 1 86.8902 109.8285)" class="st11 st12 st13">创建订单</text>
	<text transform="matrix(1 0 0 1 282.2084 94.7465)" class="st11 st12 st14">处理订单</text>
	<text transform="matrix(1 0 0 1 346.7545 45.5533)" class="st15"><tspan x="0" y="0" class="st12 st14">辅</tspan><tspan x="12.7" y="0" class="st16 st14">助角色</tspan><tspan x="50.7" y="0" class="st17 st14"> </tspan><tspan x="54" y="0" class="st17 st14">1</tspan></text>
	<text transform="matrix(1 0 0 1 348.4404 142.6783)" class="st15"><tspan x="0" y="0" class="st12 st14">辅助角色 </tspan><tspan x="54.2" y="0" class="st12 st14">2</tspan></text>
	<text transform="matrix(1 0 0 1 172.6667 98.1667)" class="st11"><tspan x="0" y="0" class="st12 st13">订单</tspan><tspan x="26.3" y="0" class="st17 st13"> #123 </tspan></text>
</g>
</svg>
