<svg id="Layer_2" data-name="Layer 2" xmlns="http://www.w3.org/2000/svg" viewBox="0 0 477.3 264.1"><defs><style>.cls-1,.cls-3{fill:none;stroke:#000;stroke-linecap:round;stroke-linejoin:round;}.cls-1{stroke-width:0.67px;}.cls-2{isolation:isolate;}.cls-3{stroke-width:0.33px;}.cls-4{fill:#fff;}</style></defs><title>OJ103614615</title><path id="path34" class="cls-1" d="M127.4,214.5c0-10.2,14.2-18.5,31.6-18.5s31.6,8.3,31.6,18.5S176.5,233,159,233s-31.6-8.2-31.6-18.5"/><path id="path48" class="cls-1" d="M267.9,56.7c0-14.5,17-26.3,38.1-26.3s38.1,11.8,38.1,26.3S327.1,83,306,83s-38.1-11.8-38.1-26.3"/><path id="path64" class="cls-1" d="M389.8,233c0-10.6,16.6-19.3,37-19.3s37,8.6,37,19.3-16.6,19.3-37,19.3-37-8.6-37-19.3"/><g class="cls-2"><path d="M402.8,229.7h-.7c-.2,0-.3.1-.4.1h-1a2.81,2.81,0,0,0-1.1.1.52.52,0,0,0-.2.4.9.9,0,0,1-.1.5c-.1.6-.2,1-.2,1.2h.1a3.22,3.22,0,0,0,.8-.1,3.44,3.44,0,0,1,.9-.1,5.76,5.76,0,0,1,1-.2c.4,0,.5.1.5.3a.37.37,0,0,1-.4.4,10.87,10.87,0,0,1-1.5.2c-.9.1-1.5.2-1.5.3s-.1.4-.2.8a3.44,3.44,0,0,0-.1.9h0q0,.15.3.3h.7l.8-.1a4.4,4.4,0,0,0,1-.2,3.22,3.22,0,0,1,.8-.1.37.37,0,0,1,.3.1c.1.1.2.2.2.3s0,.2-.1.2a3.73,3.73,0,0,1-1.2.2c-.4,0-1,.1-1.9.2a3.44,3.44,0,0,1-.9.1c-.3,0-.6,0-.6-.1s-.1-.2-.2-.4v-.1h0a.77.77,0,0,1,.1-.3,5,5,0,0,0,.3-1.2,9.32,9.32,0,0,0,.2-1.4.6.6,0,0,1,.1-.4,14.93,14.93,0,0,0,.2-1.7.31.31,0,0,0-.1-.2h0c0-.1,0-.1-.1-.2v-.1h0c0-.1,0-.1.1-.2a.31.31,0,0,1,.2-.1h.4a5.81,5.81,0,0,0,1-.1q.9-.15,2.1-.3h.3a.75.75,0,0,1,.5.1c.1.1.1.2.2.3s0,.2-.1.2S402.9,229.7,402.8,229.7Z"/><path d="M403.5,230.1v-.2a.37.37,0,0,1,.1-.3,5.53,5.53,0,0,1,.9-.1,8.08,8.08,0,0,0,1.6-.1,10.4,10.4,0,0,0,2.1-.3c.4,0,.7-.1,1-.1h.5c.2,0,.3,0,.3.1s.1.1.2.2a.35.35,0,0,0,.1.2c0,.2-.1.3-.2.3H409a4.48,4.48,0,0,0-1.1.1c-.4,0-.7.1-.7.2s-.1.7-.2,1.7-.2,1.8-.2,2.3a2.49,2.49,0,0,0,.1.8v.1a.37.37,0,0,1-.1.3c-.1.1-.2.2-.3.2a.52.52,0,0,1-.4-.2,2.53,2.53,0,0,1-.2-1.2,25.64,25.64,0,0,1,.4-3.7v-.2c0-.1-.1-.1-.2-.1a4.59,4.59,0,0,0-1,.1c-.5,0-.8.1-1.1.1S403.6,230.2,403.5,230.1Z"/><path d="M413.2,229.1v.5l.1.2.3.9c.1.3.2.6.3,1a13.77,13.77,0,0,0,.8,2,3.08,3.08,0,0,0,.8,1.2l.3.3c0,.1.1.1.1.2a.35.35,0,0,1-.4.4c-.4,0-.8-.6-1.4-1.8-.2-.5-.3-.7-.4-.7a4.4,4.4,0,0,0-.9.1c-.5.1-.9.2-1.3.3a1,1,0,0,1-.4.1c-.1,0-.1,0-.2-.1h-.1c-.1,0-.2.2-.4.6-.4.6-.6,1-.7,1.1s-.2.2-.3.2a.37.37,0,0,1-.3-.1c-.1-.1-.2-.2-.2-.3s.1-.2.2-.4.3-.5.6-1q.9-1.35,1.5-2.4a11.7,11.7,0,0,1,1.2-2.1c.2-.2.3-.3.4-.3S413.1,229,413.2,229.1Zm.3,3.5a12.25,12.25,0,0,1-.5-1.3c-.2-.7-.4-1.1-.4-1.2-.2.3-.4.8-.7,1.4l-.8,1.5a2,2,0,0,1,.5-.1.75.75,0,0,0,.5-.1C412.9,232.7,413.4,232.6,413.5,232.6Z"/><path d="M423.8,229.1v.5l.1.2.3.9c.1.3.2.6.3,1a13.77,13.77,0,0,0,.8,2,3.08,3.08,0,0,0,.8,1.2l.3.3c0,.1.1.1.1.2a.35.35,0,0,1-.4.4c-.4,0-.8-.6-1.4-1.8-.2-.5-.3-.7-.4-.7a4.4,4.4,0,0,0-.9.1c-.5.1-.9.2-1.3.3a1,1,0,0,1-.4.1c-.1,0-.1,0-.2-.1h-.1c-.1,0-.2.2-.4.6-.4.6-.6,1-.7,1.1s-.2.2-.3.2a.37.37,0,0,1-.3-.1c-.1-.1-.2-.2-.2-.3s.1-.2.2-.4.3-.5.6-1q.9-1.35,1.5-2.4a11.7,11.7,0,0,1,1.2-2.1c.2-.2.3-.3.4-.3S423.7,229,423.8,229.1Zm.3,3.5a12.25,12.25,0,0,1-.5-1.3c-.2-.7-.4-1.1-.4-1.2-.2.3-.4.8-.7,1.4l-.8,1.5a2,2,0,0,1,.5-.1.75.75,0,0,0,.5-.1C423.5,232.7,424,232.6,424.1,232.6Z"/><path d="M430.2,232c-.2,0-.3.1-.5.3a4.19,4.19,0,0,0-.8,1.3c-.5.9-.8,1.5-.9,1.6a.76.76,0,0,1-.4.2.47.47,0,0,1-.5-.5,1.76,1.76,0,0,1,.1-.6,12.74,12.74,0,0,0,.2-2.8.76.76,0,0,1,.1-.4c.1-.1.2-.2.3-.2s.3,0,.3.1a3.54,3.54,0,0,1,.1.6,10.53,10.53,0,0,1-.3,1.8,1.76,1.76,0,0,0-.1.6v.1s.2-.3.6-1a7.64,7.64,0,0,1,1-1.5,1.22,1.22,0,0,1,.9-.4.55.55,0,0,1,.6.4,2.83,2.83,0,0,1,.4,1.3c.1.7.2,1.2.2,1.4s.2.3.3.3a.37.37,0,0,0,.3-.1h.1a.22.22,0,0,1,.2.2.54.54,0,0,1-.3.4,1.42,1.42,0,0,1-.6.2.86.86,0,0,1-.6-.3,6.19,6.19,0,0,1-.3-1.6C430.7,232.5,430.5,232,430.2,232Z"/><path d="M436.2,233.8A3.4,3.4,0,0,1,435,235a3,3,0,0,1-1.1.4.86.86,0,0,1-.6-.3.84.84,0,0,1-.2-.7,4,4,0,0,1,1-2.5,2.75,2.75,0,0,1,2.1-1.3.51.51,0,0,1,.5.4c0,.1.1.1.2.1s.4.1.4.3v.4a7.74,7.74,0,0,0-.2,1.8c0,.7.1,1.1.4,1.3.1.1.2.2.2.3s-.1.2-.2.3-.2.1-.4.1-.4-.2-.6-.5A2.27,2.27,0,0,1,436.2,233.8Zm-.3-2.5c-.4,0-.8.4-1.3,1.1a3.44,3.44,0,0,0-.8,1.8c0,.3.1.5.3.5s.8-.3,1.3-1a3.39,3.39,0,0,0,.9-1.8C436.3,231.5,436.2,231.3,435.9,231.3Z"/><path d="M440,228c.2,0,.3.1.3.4a7,7,0,0,1-.4,1.7,10.62,10.62,0,0,0-.4,1.9,10.36,10.36,0,0,0-.1,1.6,6.15,6.15,0,0,0,.1,1.4v.2a.6.6,0,0,1-.1.4c-.1.1-.2.2-.3.2a.27.27,0,0,1-.3-.3,2.22,2.22,0,0,1-.1-.9,17.13,17.13,0,0,1,.4-3.6,6.35,6.35,0,0,1,.6-2.5C439.8,228.1,439.9,228,440,228Z"/><path d="M444.3,233.9a5.27,5.27,0,0,1-1.4,1,2.3,2.3,0,0,1-.9.3.75.75,0,0,1-.7-.4,1.08,1.08,0,0,1-.2-.8,6.09,6.09,0,0,1,.3-1.7,4.93,4.93,0,0,1,.4-1.2.52.52,0,0,1,.4-.2c.1,0,.1,0,.2.1a.5.5,0,0,1,0,.6c-.2.3-.2.4-.2.5a4.2,4.2,0,0,0-.2.5,2.92,2.92,0,0,0-.2.9,1.09,1.09,0,0,0,.1.5.27.27,0,0,0,.3.3,1.27,1.27,0,0,0,.6-.1,9.22,9.22,0,0,0,.8-.5,3.81,3.81,0,0,0,.6-.5.76.76,0,0,0,.2-.5c0-.2.1-.6.1-1.1s.2-.9.4-.9.3,0,.3.1a2,2,0,0,1,.1.5v.7c0,.4-.1.6-.1.8a9.86,9.86,0,0,1-.3,2.4,7.71,7.71,0,0,1-.7,2,1.56,1.56,0,0,1-1.3.8,2.46,2.46,0,0,1-1.5-.5c-.4-.3-.7-.6-.7-.8a.37.37,0,0,1,.1-.3c0-.1.1-.1.2-.1a.1.1,0,0,1,.1.1,2,2,0,0,0,1.8.9c.4,0,.8-.4,1.1-1.1a8,8,0,0,0,.5-2.1C444.3,234.1,444.3,234,444.3,233.9Z"/><path d="M448.6,234.4c0-.2-.2-.4-.7-.7a5.35,5.35,0,0,1-1.2-.7.86.86,0,0,1-.3-.6,1.51,1.51,0,0,1,.9-1.4,3,3,0,0,1,1.4-.6.75.75,0,0,1,.5.1.52.52,0,0,1,.2.4c0,.1,0,.2-.1.2s-.1.1-.2.1a.31.31,0,0,1-.2-.1.35.35,0,0,1-.2-.1,4.18,4.18,0,0,0-.9.3c-.4.2-.7.5-.7.7a.52.52,0,0,0,.2.4,5.76,5.76,0,0,0,.9.5,5.58,5.58,0,0,1,.8.5.86.86,0,0,1,.3.6c0,.4-.3.8-.9,1.1a3.92,3.92,0,0,1-1.8.4c-.5,0-.7-.2-.7-.5a.22.22,0,0,1,.2-.2.37.37,0,0,1,.3-.1h.5a3.55,3.55,0,0,0,1-.2C448.3,234.7,448.5,234.6,448.6,234.4Z"/><path d="M451.1,234.4a2.49,2.49,0,0,0,.1.8v.1c0,.1,0,.1-.1.2a.37.37,0,0,1-.3.1c-.3,0-.4-.3-.4-.8a18.48,18.48,0,0,1,.3-2.6,3.22,3.22,0,0,0,.1-.8.9.9,0,0,1,.1-.5c.1-.1.2-.2.3-.2a.6.6,0,0,1,.4.1.31.31,0,0,1,.1.2.49.49,0,0,1-.1.3,9.54,9.54,0,0,0-.4,1.7C451.2,233.4,451.1,234,451.1,234.4Zm.5-4.9c-.1,0-.1-.1-.1-.2v-.1a1.09,1.09,0,0,1-.1-.5c0-.1.1-.2.2-.4a.76.76,0,0,1,.5-.2.37.37,0,0,1,.3.1c.1.1.2.1.2.2a1.09,1.09,0,0,1-.1.5,2.19,2.19,0,0,1-.3.5A2.14,2.14,0,0,1,451.6,229.5Z"/><path d="M455,234.4c0-.2-.2-.4-.7-.7a5.35,5.35,0,0,1-1.2-.7.86.86,0,0,1-.3-.6,1.51,1.51,0,0,1,.9-1.4,3,3,0,0,1,1.4-.6.75.75,0,0,1,.5.1.52.52,0,0,1,.2.4c0,.1,0,.2-.1.2s-.1.1-.2.1a.31.31,0,0,1-.2-.1.35.35,0,0,1-.2-.1,4.18,4.18,0,0,0-.9.3c-.4.2-.7.5-.7.7a.52.52,0,0,0,.2.4,5.76,5.76,0,0,0,.9.5,5.58,5.58,0,0,1,.8.5.86.86,0,0,1,.3.6c0,.4-.3.8-.9,1.1a3.92,3.92,0,0,1-1.8.4c-.5,0-.7-.2-.7-.5a.22.22,0,0,1,.2-.2.37.37,0,0,1,.3-.1h.5a3.55,3.55,0,0,0,1-.2C454.7,234.7,454.9,234.6,455,234.4Z"/></g><path id="path78" class="cls-1" d="M18.4,44.4c0-11.1,13.1-20.2,29.2-20.2s29.2,9,29.2,20.2S63.7,64.6,47.6,64.6,18.4,55.5,18.4,44.4"/><path id="path92" class="cls-1" d="M388.1,32.2c0-11.3,18.8-20.5,42-20.5s42,9.2,42,20.5-18.8,20.5-42,20.5-42-9.2-42-20.5"/><path id="path108" class="cls-1" d="M7.4,175.5c0-11.1,13-20.2,29.1-20.2s29.1,9,29.1,20.2-13,20.2-29.1,20.2S7.4,186.6,7.4,175.5"/><path id="path122" class="cls-1" d="M295.5,140.6c0-9.9,15.6-18,34.9-18s34.9,8,34.9,18-15.6,18-34.9,18-34.9-8-34.9-18"/><path id="path150" class="cls-1" d="M405.1,105.7c0-12.6,13-22.8,28.9-22.8s28.9,10.2,28.9,22.8S450,128.5,434,128.5s-28.9-10.2-28.9-22.8"/><path id="path166" class="cls-1" d="M257.4,243.6c0-10.5,16-19,35.8-19s35.8,8.5,35.8,19-16,19-35.8,19-35.8-8.5-35.8-19"/><path id="path175" class="cls-1" d="M93.7,32.9c0-11.7,18.2-21.2,40.6-21.2S175,21.2,175,32.9s-18.2,21.2-40.7,21.2S93.7,44.6,93.7,32.9"/><g id="shape52-83"><path id="path198" class="cls-3" d="M183.59,141.69l-24.3,54.5"/></g><g id="shape58-89"><path id="path208" class="cls-3" d="M421.48,212.83l-84.7-140.6"/></g><path id="path220" class="cls-1" d="M13.4,241.4c0-11,16.6-20,37.2-20s37.2,9,37.2,20-16.6,20-37.2,20-37.2-8.9-37.2-20"/><g id="shape63-98"><path id="path227" class="cls-3" d="M237.49,96.87l34.9-25.1"/></g><g id="shape65-101"><path id="path232" class="cls-3" d="M342.67,62.75l62.4,43.1"/></g><g id="shape67-104"><path id="path237" class="cls-3" d="M333.48,37.72l54.8-8"/></g><g id="shape70-107"><path id="path242" class="cls-3" d="M83.19,97.16l86.3,23"/></g><g id="shape73-110"><path id="path247" class="cls-3" d="M74.5,111.46l62.3,90.2"/></g><g id="shape76-113"><path id="path252" class="cls-3" d="M181.46,227.66l75.9,16.1"/></g><g id="shape77-116"><path id="path257" class="cls-3" d="M217.73,149.2l55.9,78.5"/></g><g id="shape78-119"><path id="path262" class="cls-3" d="M295.68,140.18l-46.5-20"/></g><g id="shape79-122"><path id="path267" class="cls-3" d="M127.72,214.75l-61-28.6"/></g><g id="shape80-125"><path id="path272" class="cls-3" d="M136.79,227.7l-49,13.7"/></g><g id="shape81-128"><path id="path277" class="cls-3" d="M181.2,96.76l-107.9-42"/></g><g id="shape82-131"><path id="path282" class="cls-3" d="M310,82.94l4.7,40"/></g><g id="shape94-134"><path id="path287" class="cls-4" d="M308.56,108.29h-.3V107c0-.1.1,0,.1,0h.2v.1l.1,1.1h0c0,.1,0,.1-.1.1Z"/></g><g id="shape96-136"><path id="path292" class="cls-3" d="M270.48,28.26l8.9,8.5"/></g><g id="shape97-139"><path id="path297" class="cls-3" d="M175.17,36.36l92.3,16.1"/></g><path id="path78-2" data-name="path78" class="cls-1" d="M24.6,97c0-11.1,13.1-20.2,29.2-20.2S83,85.8,83,97s-13.1,20.2-29.2,20.2S24.6,108.1,24.6,97"/><path id="path175-2" data-name="path175" class="cls-1" d="M201.1,17.8c0-8.7,17.4-15.9,38.8-15.9S278.7,9,278.7,17.8s-17.4,15.9-38.8,15.9-38.8-7.1-38.8-15.9"/><path id="path78-3" data-name="path78" class="cls-1" d="M170.2,119.2c0-16.5,17.5-30,38.9-30,21.6,0,38.9,13.4,38.9,30s-17.5,30-38.9,30c-21.4-.2-38.9-13.5-38.9-30"/><path d="M124.52,25.08v-.63h2.85v.65a11.79,11.79,0,0,1-1,1.52v.49l.38-.35c.42.38.8.74,1.16,1.1l-.51.45c-.3-.34-.64-.71-1-1.1v4h-.67V27.43a13.33,13.33,0,0,1-1,1q-.09-.34-.24-.75a9.52,9.52,0,0,0,2.13-2.6Zm.86-2.13.61-.31c.23.36.46.76.7,1.21l-.65.34C125.8,23.71,125.58,23.29,125.38,23Zm4.49,1.45h.68a23.08,23.08,0,0,1-.12,3.1H131v2.41c0,.34.16.52.48.52h.47a.54.54,0,0,0,.61-.46c0-.32.07-.73.1-1.24a6.94,6.94,0,0,0,.66.27c0,.5-.09.92-.14,1.23-.07.53-.43.8-1.06.8h-.76a.91.91,0,0,1-1-1V28.12a4.78,4.78,0,0,1-3,3.24c-.13-.18-.29-.38-.46-.58a4.25,4.25,0,0,0,2.92-4C129.85,26.16,129.87,25.35,129.87,24.4Zm-1.82-1.28h4.41v5.42h-.68v-4.8h-3v4.8h-.69Z"/><path d="M133.4,29.28a12,12,0,0,0,.89-2.12l.62.19a14.46,14.46,0,0,1-.92,2.23A6.43,6.43,0,0,0,133.4,29.28Zm2.13-2.65h.63v2.26a6.44,6.44,0,0,0,.93-1.42l.62.36a8.21,8.21,0,0,1-3.81,3.54,6.8,6.8,0,0,0-.45-.57,7.73,7.73,0,0,0,2.46-1.64h-.38Zm-2.05-.81h.61V23.49h.61v2.33h.9V22.68h.63v1.38h1.23v.58h-1.23v1.18h1.35v.6h-4.1Zm6,.21h.65v1.34a5.34,5.34,0,0,1-.24,1.71c.91.55,1.72,1.08,2.42,1.58l-.42.61a27.31,27.31,0,0,0-2.28-1.61l-.12.17a4.79,4.79,0,0,1-2.26,1.5,6.31,6.31,0,0,0-.44-.57,4.93,4.93,0,0,0,2.11-1.3,3.34,3.34,0,0,0,.58-2.13Zm-1.63-1.17h1.28l.22-1.13h-1.87v-.6h4.72v.6h-2.12l-.26,1.13h2v4.56h-.66v-4h-2.64v4h-.66Z"/><path d="M124.53,41.1h1V38.27h6.58V41.1h1v.64h-8.65Zm.7-7.15h.66v3.64h-.66Zm1,7.15h1.31V38.89h-1.31Zm1.57-7.66V38h-.66V33.44Zm.16,3.17a10.74,10.74,0,0,0,1.77-3.26l.67.2c-.16.4-.31.77-.48,1.12h3.18v.62h-3.48A13,13,0,0,1,128.51,37Zm.23,4.49h1.31V38.89h-1.31Zm1.7-4.86.44-.47a24,24,0,0,1,1.89,1.5l-.49.54A23.86,23.86,0,0,0,129.89,36.24Zm1.58,2.65h-1.32V41.1h1.32Z"/><path d="M133.47,38.11l1.25-.31v-2h-1.2v-.63h1.2V33.42h.69v1.71h.89v.63h-.89v1.86l.88-.25a5.53,5.53,0,0,0,.06.68l-.94.27V41c0,.63-.28.94-.84.94l-.9,0c0-.24-.07-.49-.12-.73a7.59,7.59,0,0,0,.78.06c.26,0,.39-.14.39-.41V38.52l-1.16.34Zm3.29.13h5v.61h-2.16V41h2.58v.65h-6V41h2.72V38.85h-2.14Zm2.1-1.79q-1,.91-2,1.65l-.48-.53A16.46,16.46,0,0,0,138.36,36Zm-2.23-1.71h2.52c-.22-.34-.46-.68-.72-1l.56-.36c.33.41.61.77.84,1.1l-.44.29h2.54v1.58h-.69v-.94h-3.93v.94h-.68Zm3.06,1.7.46-.46c.78.57,1.44,1.09,2,1.57l-.49.56A20.85,20.85,0,0,0,139.69,36.44Z"/><path d="M41.58,46.79l2.44,0,3.19-.07q-.1.33-.27.78H43.8l-2.41,0a2.53,2.53,0,0,1-2.33-1.14,14.73,14.73,0,0,0-1.17,1.31l-.4-.81c.57-.56,1-1,1.25-1.19V42.37H37.58v-.72h1.91v4.18A2.29,2.29,0,0,0,41.58,46.79Zm-2.87-8.42c.33.4.79,1,1.37,1.84l-.7.49c-.52-.83-1-1.47-1.3-1.91ZM42,42.62l.47-.5c.69.51,1.35,1,2,1.5a6.33,6.33,0,0,0,1.29-2H41.78A6.57,6.57,0,0,1,40.4,46a6.54,6.54,0,0,0-.52-.61A5.72,5.72,0,0,0,41,41.54V38.86a38.91,38.91,0,0,0,5.61-.42l.27.77c-1.68.17-3.39.28-5.13.34v1.37H46.5v.7A6.92,6.92,0,0,1,45,44.1c.68.53,1.31,1.06,1.89,1.57l-.58.63c-.63-.56-1.25-1.11-1.88-1.64a10.61,10.61,0,0,1-2.81,1.76c-.14-.2-.31-.41-.49-.62a10.9,10.9,0,0,0,2.71-1.64C43.22,43.63,42.59,43.12,42,42.62Z"/><path d="M48.11,38.77h8.54v8.94h-.82v-.62h-6.9v.62h-.82Zm7.72.72h-6.9v6.89h6.9ZM50.3,41h4.15v4.27h-.76V44.7H51.06v.55H50.3Zm3.39.69H51.06V44h2.63Z"/><path d="M44.32,93.29h2.27c.18-.75.33-1.57.45-2.45L48,91c-.12.82-.27,1.59-.44,2.34h5.93v.79H47.3c-.13.47-.27.93-.42,1.36h5.33v.75a7.82,7.82,0,0,1-2.21,3,10.23,10.23,0,0,0,3.52,1.28,8.55,8.55,0,0,0-.75.91,15.87,15.87,0,0,1-3.46-1.67,16.77,16.77,0,0,1-4,1.74,8.47,8.47,0,0,0-.64-.79,16.24,16.24,0,0,0,3.94-1.46,6.62,6.62,0,0,1-2-3A13.25,13.25,0,0,1,43.4,101c-.2-.27-.39-.52-.57-.73a12.9,12.9,0,0,0,3.56-6.21h-3v-.81c.29-.68.56-1.36.8-2l.87.24C44.83,92.09,44.58,92.7,44.32,93.29Zm6.94,2.9H47.38a5.18,5.18,0,0,0,1.92,2.56A6.6,6.6,0,0,0,51.26,96.19Zm-1.65-4.61.47-.6c.7.44,1.37.9,2,1.38l-.58.7C50.9,92.53,50.26,92,49.61,91.58Z"/><path d="M56.86,98.84l.59.65c-1,.64-2.09,1.24-3.14,1.81-.12-.22-.27-.47-.46-.75A19.93,19.93,0,0,0,56.86,98.84ZM54,97.94H64.44v.66h-4.7V100a1.13,1.13,0,0,1-1.26,1.28H57.07c0-.24-.07-.52-.14-.85.55,0,1,.08,1.31.08a.6.6,0,0,0,.68-.67V98.6H54ZM54.78,93h2.69V92H54.22v-.67h10V92H61v1h2.7v3H62.9v-.34H55.54V96h-.76Zm0,3.45h8.87v.66H54.8ZM55.54,95h1.93V93.66H55.54Zm2.7-2h1.94V92H58.24Zm0,2h1.94V93.66H58.24Zm2.51,4.54.45-.67c1,.49,2.07,1,3.18,1.6l-.51.8C62.75,100.63,61.71,100.05,60.75,99.56Zm2.15-5.9H61V95H62.9Z"/><path d="M22.63,176.08l.69.24a18.34,18.34,0,0,1-.93,2.37,5.87,5.87,0,0,0-.65-.29A13.68,13.68,0,0,0,22.63,176.08Zm0-4.26h3.07v-1h.71v1h3.07v3.25h-.69v-.32H26.44v.82h-.71v-.82H23.36v.32h-.7Zm.7,2.3h2.37v-1.67H23.36Zm.56,2.15h.69v1.58c0,.47.19.7.58.7h1.94a.69.69,0,0,0,.77-.61A8.55,8.55,0,0,0,28,177a5,5,0,0,0,.68.27c-.08.41-.15.75-.22,1a1.12,1.12,0,0,1-1.22.9H25.05c-.75,0-1.13-.4-1.13-1.2Zm1.34-.13.48-.45c.46.37.93.8,1.42,1.27l-.52.53Q26,176.76,25.26,176.14Zm3.56-3.69H26.44v1.67h2.38Zm-.34,4.05.51-.38c.54.61,1.05,1.21,1.52,1.8l-.59.46C29.48,177.77,29,177.14,28.48,176.5Z"/><path d="M33,176.21a4.33,4.33,0,0,0,.21.7c-.5.49-1,1-1.51,1.58l-.42-.5a1.07,1.07,0,0,0,.28-.71v-2.94h-.84v-.63h1.49v3.35C32.53,176.75,32.79,176.47,33,176.21Zm-1.28-5.27c.41.48.78.95,1.12,1.42l-.58.42c-.34-.51-.69-1-1.07-1.47Zm3.51,7.85A8.24,8.24,0,0,0,37,177.05a21.25,21.25,0,0,1-.47-4.09H34.21v1.38H36c0,1.21,0,2.11-.06,2.68s-.37,1.08-1,1.08h-.7c0-.19-.09-.42-.15-.68a7,7,0,0,0,.74,0q.45,0,.48-.54c0-.61,0-1.26,0-2H34.21a6.79,6.79,0,0,1-1.27,4.47c-.17-.17-.35-.33-.54-.5a5.89,5.89,0,0,0,1.15-4v-2.59h3c0-.5,0-1,0-1.59h.7q0,.84,0,1.59h2.24V173H37.19a23.2,23.2,0,0,0,.31,3.32,11.53,11.53,0,0,0,1-2.27l.65.31a13.23,13.23,0,0,1-1.46,2.86,2.32,2.32,0,0,0,.7,1.23c.19.12.31.06.36-.2s.09-.72.13-1.23c.24.1.45.18.64.24q-.08.74-.15,1.2c-.12.56-.35.83-.7.83-.61,0-1.1-.48-1.45-1.44a9.25,9.25,0,0,1-1.5,1.5A4.47,4.47,0,0,0,35.25,178.79Zm2.37-7.6.41-.43c.37.28.73.58,1.09.89l-.45.49A10.7,10.7,0,0,0,37.62,171.19Z"/><path d="M43.85,170.92l.65-.3c.19.31.4.66.6,1.06h3.24v.61h-7v2.65a7.14,7.14,0,0,1-1.17,4.48c-.14-.19-.31-.39-.5-.6a6.26,6.26,0,0,0,1-3.92v-3.22h3.64A8.2,8.2,0,0,0,43.85,170.92Zm-2.07,5.57v-.58h5.51v.57A8.57,8.57,0,0,1,45.43,178a10.48,10.48,0,0,0,3,.66l-.35.69a11.06,11.06,0,0,1-3.34-1,12.74,12.74,0,0,1-3.36,1.06c-.1-.18-.22-.4-.36-.63a12.86,12.86,0,0,0,3-.82,5.59,5.59,0,0,1-1.55-1.47Zm-.26-3.27h1.31v-.74h.66v.74H46v-.75h.67v.75h1.6v.58h-1.6v1.68H46v-.3H43.49v.31h-.66V173.8H41.52Zm4.86,3.27H43.24a5.83,5.83,0,0,0,1.5,1.16A7,7,0,0,0,46.38,176.49Zm-2.89-1.88H46v-.81H43.49Z"/><path d="M36.84,246.33v-2.8H34.28a5.71,5.71,0,0,1-1.06,3,6.78,6.78,0,0,0-.52-.61,4.86,4.86,0,0,0,.78-1.79,15.22,15.22,0,0,0,.19-2.69v-3.14h7.16v7c0,.69-.33,1-1,1l-1.36,0c0-.2-.08-.44-.14-.73.51,0,.93,0,1.24,0s.55-.17.55-.52v-1.62H37.54v2.8Zm-2.51-3.43h2.51v-1.64H34.37A12.65,12.65,0,0,1,34.33,242.9Zm0-3.91v1.63h2.47V239Zm5.76,0H37.54v1.63h2.59Zm-2.59,3.91h2.59v-1.64H37.54Z"/><path d="M45.33,238.1l.63-.38c.29.34.56.7.84,1.09l-.43.28h3.28V243h-.71v-.46H43.39a7,7,0,0,1-1.3,4c-.16-.2-.33-.39-.51-.58a6.41,6.41,0,0,0,1.12-4.12v-2.78h3.36C45.84,238.76,45.6,238.43,45.33,238.1Zm-1.92,1.62v2.17h5.53v-2.17Z"/><path d="M53.62,244.08q0,.43.06.75c-.75.53-1.36,1-1.83,1.35l-.41-.59a.89.89,0,0,0,.3-.72v-3.39h-1.1v-.64h1.78V245ZM51.54,238c.64.66,1.1,1.14,1.39,1.46l-.62.52A17,17,0,0,0,51,238.42ZM53,242.44h2.85V239H53.44v-.66H58.9V239H56.52v3.4h2.87v.67H56.52v3.31h-.71v-3.31H53Zm.43-2.48.55-.33c.44.63.84,1.25,1.18,1.85l-.61.39C54.11,241.15,53.74,240.51,53.39,240Zm3.75,1.54a14.5,14.5,0,0,0,1.18-1.87L59,240c-.38.62-.8,1.25-1.25,1.9Z"/><path d="M59.57,241.41a10.9,10.9,0,0,0,3.09-3.5l.63.34A12.11,12.11,0,0,1,60.08,242,3.6,3.6,0,0,0,59.57,241.41Zm1.2.29h5.84c0,1-.07,2-.13,2.91-.07,1.1-.59,1.64-1.56,1.64-.47,0-1,0-1.5,0l-.12-.75a11.35,11.35,0,0,0,1.51.1c.58,0,.91-.33,1-1s.09-1.37.11-2.19h-2.7a5.73,5.73,0,0,1-.61,2.36,4.37,4.37,0,0,1-2.24,1.82,6.94,6.94,0,0,0-.51-.59,4,4,0,0,0,2.11-1.58,4.63,4.63,0,0,0,.53-2H60.77ZM64.4,238l.64-.27a6.58,6.58,0,0,0,3.39,3.52,7.14,7.14,0,0,0-.57.67A8,8,0,0,1,64.4,238Z"/><path d="M156.54,215.43c0,.34,0,.59.05.76a11.69,11.69,0,0,0-1.37.85,4.32,4.32,0,0,0-.46.39l-.51-.59a1,1,0,0,0,.31-.74v-3h-.92v1.48c0,.35-.08.57-.25.68a1.63,1.63,0,0,1-.75.13c0-.2-.09-.43-.15-.68.36.07.54,0,.54-.19v-3.58h-.61v6.49h-.62v-6.49h-.61v4.54h-.6v-5.11h1.21v-1.54h.62v1.54h1.22v2.14h.92v-3.63h.64v3.63h3.54v.59h-2.07a5.23,5.23,0,0,0,2.29,3.18,8,8,0,0,0-.58.61,6.17,6.17,0,0,1-2.34-3.79h-.84v3.11C155.46,216.07,155.91,215.81,156.54,215.43Zm-1-3.89a13.58,13.58,0,0,0,2.47-2.31l.52.38a16.1,16.1,0,0,1-2.58,2.43A4.85,4.85,0,0,0,155.51,211.54Z"/><path d="M162.9,209.09l.63-.37a12.46,12.46,0,0,1,.84,1.09l-.43.27h3.28V214h-.71v-.46H161a7,7,0,0,1-1.3,4.05c-.16-.2-.33-.39-.51-.58a6.41,6.41,0,0,0,1.12-4.12v-2.78h3.36C163.41,209.75,163.17,209.42,162.9,209.09ZM161,210.71v2.17h5.53v-2.17Z"/><path d="M277.23,238.85h2.32v6.29h-.65v-.74h-1v.85h-.65Zm1.67.64h-1v4.27h1Zm1,2.71h2.44V239c-.67,0-1.4.1-2.18.14,0-.2-.08-.41-.14-.64q2.72-.08,5-.36l.14.64c-.64.07-1.36.12-2.16.18v3.22h2.44v.64H283v2.41c0,.69-.31,1-.92,1.05h-1.4a6.06,6.06,0,0,0-.14-.75c.57,0,1,.07,1.32.07s.47-.18.47-.53v-2.24h-2.44Zm.37-2.34.59-.26a20.52,20.52,0,0,1,.93,1.89l-.67.35C280.82,241.15,280.54,240.49,280.23,239.86Zm3.22,1.7a18.5,18.5,0,0,0,1-2.05l.66.31c-.38.77-.75,1.44-1.1,2Z"/><path d="M286.36,238.66h2.83V245h-.68v-.72H287v.81h-.68Zm2.15.65H287v4.29h1.47Zm4.53-1.43h.71v8.54H293v-2.83c-.63.16-1.17.32-1.64.47a4.44,4.44,0,0,0-.83.4l-.46-.58a1.15,1.15,0,0,0,.27-.81v-4.43h.7v4.74l2-.51Z"/><path d="M295.34,239.71h3.38v-1.92h.76v1.92h3.42v4h-.72v-.48h-2.7v3.27h-.76v-3.27h-2.66v.48h-.72Zm.72,2.88h2.66v-2.23h-2.66Zm6.12-2.23h-2.7v2.23h2.7Z"/><path d="M304.71,240.45l.7.19c-.27,1.25-.59,2.46-1,3.64l-.7-.27A26.69,26.69,0,0,0,304.71,240.45Zm1.29-.94h.73v5.15c0,.53.24.8.71.8h1.89c.5,0,.79-.21.85-.63s.12-.82.17-1.33l.76.28c-.09.61-.17,1.07-.25,1.38a1.25,1.25,0,0,1-1.39,1h-2.21c-.84,0-1.26-.44-1.26-1.31Zm1.93-1.77c.56.93,1,1.76,1.42,2.51l-.71.37a27.9,27.9,0,0,0-1.32-2.56Zm3,2.44c.49.94,1,2,1.55,3.21l-.73.36c-.45-1.13-.94-2.22-1.48-3.27Z"/><path d="M322.16,135.26h.76c-.13.29-.27.56-.41.82h2.77v.55h-2.22c.26.25.5.51.73.77l-.51.38h1.14v2.35h-.68v-.32h-2.39v.88h3.53c0,.53-.05,1-.08,1.5a1,1,0,0,1-1.13,1.11h-1.33c0-.21-.09-.45-.15-.69.58,0,1,0,1.35,0a.5.5,0,0,0,.56-.52c0-.27,0-.55.06-.83h-2.81V144h-.7V141.5a7.65,7.65,0,0,1-3.69,2.27l-.37-.57a7.6,7.6,0,0,0,3.4-1.91h-2.67v-.6l.42-1.48h2.91v-.83h-3.08v-.6h1.73c-.25-.32-.49-.61-.73-.89l.35-.26h-.64a7.69,7.69,0,0,1-1.21,1.28,5.9,5.9,0,0,0-.44-.47,6,6,0,0,0,1.71-2.18h.76a5.9,5.9,0,0,1-.45.82h2.55v.55h-2.11c.24.24.47.49.71.76l-.49.39h4c-.24-.32-.48-.61-.71-.88l.38-.27h-.75a7.56,7.56,0,0,1-.73,1,5.07,5.07,0,0,0-.54-.43A6.12,6.12,0,0,0,322.16,135.26ZM318,140.69h2.61v-.88h-2.37Zm5.7-2.31h-2.39v.83h2.39Z"/><path d="M325.79,142.54h8.49v.74h-8.49Zm.54-6.36h7.37v.76h-7.37Zm.4,3h6.57v.74h-6.57Z"/><path d="M334.8,136.81H339c-.3-.56-.53-1-.7-1.23l.69-.32c.16.25.41.66.74,1.23l-.65.32h4.17v.67h-5.33c0,.54,0,1-.07,1.36h4.25c-.07,1.28-.15,2.38-.23,3.32s-.58,1.59-1.55,1.59c-.44,0-1,0-1.78-.07,0-.22-.07-.49-.13-.81a14.18,14.18,0,0,0,1.81.15q.81,0,.9-1c.07-.7.14-1.55.19-2.56h-3.5a5.69,5.69,0,0,1-2.69,4.5l-.54-.59a5.12,5.12,0,0,0,2.49-4.1c0-.46.08-1.07.1-1.83H334.8Z"/><path d="M217.58,15.41H221a13.14,13.14,0,0,0,.22-2h-3v-.69h7.14v.69H222a16.18,16.18,0,0,1-.22,2h4.29v.69h-4.44a6.86,6.86,0,0,1-3.68,4.61,5.69,5.69,0,0,0-.47-.63,6.34,6.34,0,0,0,3.41-4h-3.29Zm4.5,1.32h.71V19c0,.47.22.7.64.7h1.21a.59.59,0,0,0,.68-.52c0-.33.08-.77.1-1.3.22.08.47.17.74.25-.06.58-.11,1-.16,1.31-.08.59-.49.88-1.25.88h-1.52c-.77,0-1.15-.4-1.15-1.21Z"/><path d="M226.44,19.89q3.84-2.22,4.05-7.77h.78c0,.63-.1,1.22-.19,1.79.73,2.93,2.09,4.86,4.1,5.78a9.9,9.9,0,0,0-.65.77,8.42,8.42,0,0,1-3.73-5.23A8.41,8.41,0,0,1,227,20.56,6.25,6.25,0,0,0,226.44,19.89Z"/><path d="M235.41,17.49a9.81,9.81,0,0,0,1.41-3.17H235.5v-.59h1.37V12h.64v1.73h1.23v.59h-1.23v1.46l.35-.35c.45.41.8.75,1.06,1l-.47.49c-.36-.4-.68-.73-.94-1v4.64h-.64V15.85a7.63,7.63,0,0,1-1.17,2.41C235.61,18,235.51,17.74,235.41,17.49Zm4.64-4.26v2.91a5.87,5.87,0,0,1-1.58,4.56c-.16-.2-.33-.4-.52-.6a4.81,4.81,0,0,0,1.39-3.81V12.56h3.27v6.61c0,.29.1.44.31.44h.2c.19,0,.31-.17.36-.5s.1-.93.13-1.45a6.9,6.9,0,0,0,.66.28c-.05.58-.1,1-.15,1.42q-.15.93-.9.93h-.47c-.56,0-.84-.33-.84-1V13.23Z"/><path d="M247.42,18l.54.56a31,31,0,0,1-3,2,6.92,6.92,0,0,0-.46-.6A21.12,21.12,0,0,0,247.42,18Zm-2.94-1.12h2.26V14.44h-1.91v-.67h1.91V12.08h.72v1.69h2.67v-1.7h.72v1.7h1.92v.67h-1.92v2.42h2.27v.67h-8.64Zm3,0h2.67V14.44h-2.67Zm2.1,1.73L250,18q1.52.9,2.91,1.86l-.51.64A34.05,34.05,0,0,0,249.56,18.59Z"/><path d="M253.46,18.22h4.07v-.47l2.15-.59h-5.45v-.58h6.66v.76l-2.66.78v.1h3.89v.6h-3.89v.72c0,.68-.37,1-1.1,1l-1.3,0c0-.19-.05-.43-.1-.71a12.35,12.35,0,0,0,1.28.08c.34,0,.52-.16.52-.48v-.61h-4.07Zm.1-5.2h3.92c-.18-.27-.35-.53-.53-.77l.64-.38c.27.37.5.68.68,1l-.33.2H262v.59h-8.48Zm1.18,1.14h6.05v2.08h-.67V16h-4.71v.28h-.67Zm5.38.56h-4.71v.68h4.71Z"/><path d="M197.89,121.13h10.59v.69h-1.61V125c0,.83-.38,1.25-1.14,1.25h-1.37c0-.29-.1-.59-.16-.89a11.34,11.34,0,0,0,1.28.09c.38,0,.58-.23.58-.67v-3h-8.17Zm.4-4.13h4.62c-.14-.27-.3-.54-.46-.82l.77-.34c.22.38.42.77.6,1.16h4.27v1.87h-.84v-1.14h-8.12v1.14h-.84Zm.55,3.34c2.06-.27,3.26-.63,3.6-1.07h-2.87v-.66h3.18a2.36,2.36,0,0,0,.06-.67h.81a6.48,6.48,0,0,1-.08.67h3.29v.66h-3.48a1.19,1.19,0,0,1-.08.16c1.38.3,2.69.62,3.95,1l-.25.66c-1.32-.41-2.69-.79-4.1-1.14a8.56,8.56,0,0,1-3.75,1.13C199,120.81,198.94,120.58,198.84,120.34Zm.47,2.2h4.77v2.53h-4v.5h-.78Zm4,1.87v-1.19h-3.21v1.19Z"/><path d="M213.35,125.42q2.37,0,6.2,0c-.12.29-.24.56-.36.83-2.55,0-4.52,0-5.9,0a3.09,3.09,0,0,1-2.72-1.25,11.3,11.3,0,0,0-1.26,1.38l-.46-.92c.44-.4.89-.79,1.33-1.17v-3.75H209v-.78H211v4.7A3,3,0,0,0,213.35,125.42ZM210,116q.79.93,1.65,2.1l-.77.51c-.47-.72-1-1.42-1.55-2.13Zm1.84,4.61H215c0-.15,0-.75,0-1.8H212.2V118h3.69a13.88,13.88,0,0,0,1.51-2.2l.86.53c-.29.37-.77.93-1.42,1.67h2.24v.75h-3.21c0,.9,0,1.5,0,1.8h3.47v.75h-3.54a3,3,0,0,1-.09.54c1.13.74,2.23,1.51,3.3,2.29l-.57.73q-1.65-1.31-3-2.25a5.17,5.17,0,0,1-2.87,2.39c-.2-.25-.39-.48-.58-.68,1.84-.73,2.82-1.74,3-3H211.8Zm1.17-4.24.65-.49q.54.6,1.26,1.47l-.75.52A16.69,16.69,0,0,0,213,116.35Z"/><path d="M283.54,55.83H287a12.26,12.26,0,0,0,.22-2h-3V53.1h7.14v.69H288a16.46,16.46,0,0,1-.23,2H292v.68h-4.45a6.85,6.85,0,0,1-3.67,4.61,5.87,5.87,0,0,0-.48-.63,6.31,6.31,0,0,0,3.41-4h-3.29Zm4.5,1.32h.72v2.31c0,.46.21.69.64.69h1.2c.4,0,.63-.17.68-.52a12.37,12.37,0,0,0,.1-1.3l.74.26c-.06.58-.11,1-.16,1.31-.07.58-.49.87-1.24.87H289.2c-.77,0-1.16-.4-1.16-1.21Z"/><path d="M292.4,60.3q3.84-2.22,4.06-7.77h.77a14,14,0,0,1-.19,1.79q1.09,4.4,4.1,5.79c-.25.27-.46.52-.65.76a8.35,8.35,0,0,1-3.72-5.22A8.41,8.41,0,0,1,293,61,6.41,6.41,0,0,0,292.4,60.3Z"/><path d="M301.38,57.9a10.05,10.05,0,0,0,1.4-3.16h-1.31v-.6h1.37V52.41h.63v1.73h1.23v.6h-1.23V56.2l.35-.36c.45.41.81.75,1.06,1l-.47.48c-.36-.4-.67-.73-.94-1V61h-.63V56.27a8.13,8.13,0,0,1-1.17,2.4C301.57,58.41,301.48,58.15,301.38,57.9ZM306,53.64v2.91q0,3.15-1.57,4.56l-.52-.6a4.82,4.82,0,0,0,1.39-3.8V53h3.27v6.61c0,.29.1.44.3.44h.21c.18,0,.3-.17.36-.49s.1-.94.12-1.46a7.13,7.13,0,0,0,.67.28c-.06.58-.11,1-.16,1.42q-.13.93-.9.93h-.46c-.57,0-.85-.33-.85-1V53.64Z"/><path d="M313.06,54.9c-.22-.29-.47-.59-.73-.89l.39-.28H312a7.1,7.1,0,0,1-1.13,1.13c-.11-.14-.26-.3-.44-.49a6.25,6.25,0,0,0,1.68-2h.76a8.21,8.21,0,0,1-.48.83h2.58v.55h-2.11q.39.38.75.78Zm-2.3.05h3.76c-.1-.19-.23-.39-.37-.62l.6-.26a7.08,7.08,0,0,1,.53.88h3.47v1.36h-.67v-.79h-6.64v.8h-.68Zm1,1.22h5.41v2.12h-.67v-.22h-4.07v.67h5.48V61h-.67V60.7h-4.81V61h-.67Zm4.74.53h-4.07v.84h4.07Zm.74,2.56h-4.81v.86h4.81Zm-.16-4.36q-.3-.42-.72-.9l.39-.27H316a9,9,0,0,1-.53.75,4.05,4.05,0,0,0-.54-.43,5.88,5.88,0,0,0,1-1.7h.75a6.38,6.38,0,0,1-.4.83h2.81v.55h-2.25a7.32,7.32,0,0,1,.72.77Z"/><path d="M319.33,59.59l1.3-.33V56.6h-1.09V56h1.09V53.79h-1.18v-.62h3v.62h-1.18V56h1.11v.62h-1.11v2.49l1.12-.33c0,.27.06.49.1.69-1,.27-2,.55-2.95.85Zm2.79.52h2.75V58.84h-2.24v-.61h2.24V57.07h-1.41v.32h-.65V52.86h4.77v4.53h-.65v-.32h-1.41v1.16h2.24v.61h-2.24v1.27h2.63v.61h-6Zm1.34-5.44h1.41V53.45h-1.41Zm0,1.8h1.41V55.25h-1.41Zm3.47-3h-1.41v1.22h1.41Zm-1.41,3h1.41V55.25h-1.41Z"/><path d="M414,30.2l.44-.39.6.56.93-1.13h-2.47v-.62h3.28v.62l-1.3,1.57.29.31-.35.31H417V32a12.84,12.84,0,0,1-.44,1.56l-.61-.2a8.06,8.06,0,0,0,.39-1.34h-.88v3.7a.88.88,0,0,1-1,1h-.93c0-.22-.07-.45-.13-.72a6.65,6.65,0,0,0,.89.06c.33,0,.49-.19.49-.57V32h-1.41v-.61h1.73A13.79,13.79,0,0,0,414,30.2Zm5.22,1.18h.65v1.31a5.15,5.15,0,0,1-.27,1.77q1.38.93,2.52,1.8l-.49.57c-.71-.61-1.48-1.2-2.3-1.79l-.17.26a5.93,5.93,0,0,1-2.24,1.6,6.93,6.93,0,0,0-.49-.58,5.15,5.15,0,0,0,2.21-1.48,3.61,3.61,0,0,0,.58-2.19Zm-1.79-1h1.48l.22-1.21h-2V28.6h5v.61h-2.26l-.25,1.21h2.11v4.32H421V31h-3v3.72h-.64Z"/><path d="M422.7,30.64c.49.4,1,.79,1.4,1.18l-.51.56q-.79-.78-1.32-1.26Zm.73,2.54a7.44,7.44,0,0,0,.7.32c-.4,1.47-.68,2.55-.86,3.25l-.72-.34A23.94,23.94,0,0,0,423.43,33.18Zm-.33-4.8c.35.3.8.7,1.33,1.21-.19.19-.37.36-.52.53-.43-.48-.85-.91-1.27-1.3ZM426,30.07h.64v2.18a7.74,7.74,0,0,1-.24,2.14c.76.59,1.42,1.11,2,1.58l-.47.54q-.7-.67-1.74-1.53a4.87,4.87,0,0,1-2,1.91,7.1,7.1,0,0,0-.43-.57,4.43,4.43,0,0,0,1.79-1.67,5.18,5.18,0,0,0,.43-2.39Zm-1.37-1.38h3.31v5.56h-.63V29.31h-2v4.94h-.63Zm5.44-.48h.64v7.48c0,.67-.32,1-1,1-.29,0-.62,0-1,0a6,6,0,0,0-.12-.72,9.43,9.43,0,0,0,1,.06.44.44,0,0,0,.5-.5Zm-.76,6.54h-.61V28.92h.61Z"/><path d="M431.27,31.75a10.76,10.76,0,0,0,3.09-3.49l.63.34a12.11,12.11,0,0,1-3.21,3.75A4.09,4.09,0,0,0,431.27,31.75Zm1.2.29h5.84c0,1-.07,2-.13,2.92s-.59,1.64-1.56,1.64c-.47,0-1,0-1.5-.05l-.12-.74a13.33,13.33,0,0,0,1.51.1c.58,0,.91-.33,1-1s.08-1.36.1-2.19h-2.7a5.78,5.78,0,0,1-.61,2.37A4.38,4.38,0,0,1,432,36.88c-.16-.2-.32-.4-.5-.59a4,4,0,0,0,2.1-1.58,4.64,4.64,0,0,0,.53-2h-1.69Zm3.63-3.65.64-.28a6.57,6.57,0,0,0,3.39,3.53,6,6,0,0,0-.57.67A8,8,0,0,1,436.1,28.39Z"/><path d="M440.32,33.69a9.9,9.9,0,0,0,1.38-3.09h-1.25V30h1.27V28.25h.64V30h1.22v.6h-1.22v1l.33-.25a16.66,16.66,0,0,1,1.16,1.5l-.55.41c-.27-.44-.59-.89-.94-1.36v4.89h-.64V32.27a8.21,8.21,0,0,1-1.09,2.2A8.26,8.26,0,0,0,440.32,33.69Zm3.78-4.79a31.65,31.65,0,0,0,4.34-.38l.24.63a38.91,38.91,0,0,1-3.9.36v2h4.29v.64h-1.65v4.68h-.68V32.11h-2v.34a6.14,6.14,0,0,1-1.45,4.39,6.9,6.9,0,0,0-.46-.58,5.4,5.4,0,0,0,1.23-3.82Z"/><path d="M411.63,104.52h3.45a13.42,13.42,0,0,0,.22-2h-3v-.69h7.14v.69H416a18.63,18.63,0,0,1-.23,2h4.29v.68h-4.44a6.86,6.86,0,0,1-3.68,4.61,5.69,5.69,0,0,0-.47-.63,6.34,6.34,0,0,0,3.41-4h-3.29Zm4.5,1.31h.71v2.32c0,.46.22.69.65.69h1.2a.59.59,0,0,0,.68-.52c0-.33.08-.77.1-1.3l.74.26c-.06.58-.11,1-.16,1.31-.07.58-.49.87-1.25.87h-1.52c-.76,0-1.15-.4-1.15-1.21Z"/><path d="M420.49,109q3.84-2.22,4.05-7.77h.78c0,.63-.1,1.23-.19,1.79.73,2.93,2.09,4.86,4.1,5.79a9.87,9.87,0,0,0-.65.76,8.42,8.42,0,0,1-3.73-5.22,8.41,8.41,0,0,1-3.81,5.32A6.25,6.25,0,0,0,420.49,109Z"/><path d="M429.46,106.59a9.86,9.86,0,0,0,1.41-3.16h-1.32v-.6h1.37V101.1h.64v1.73h1.23v.6h-1.23v1.46l.35-.36c.45.41.8.75,1.06,1l-.47.48c-.36-.4-.68-.73-.94-1v4.64h-.64V105a7.67,7.67,0,0,1-1.17,2.4C429.66,107.1,429.56,106.84,429.46,106.59Zm4.64-4.26v2.91c0,2.09-.53,3.62-1.58,4.56-.16-.2-.33-.4-.52-.6a4.78,4.78,0,0,0,1.39-3.8v-3.74h3.27v6.61c0,.29.11.44.31.44h.2c.19,0,.31-.17.36-.49s.1-.94.13-1.46a6.9,6.9,0,0,0,.66.28c-.05.58-.1,1-.15,1.42q-.15.93-.9.93h-.47c-.56,0-.84-.33-.84-1v-6.06Z"/><path d="M438.46,105.36a15.83,15.83,0,0,0,1.63-4.27l.65.12c-.18.69-.37,1.33-.59,1.93v6.58h-.62v-5a13.87,13.87,0,0,1-.78,1.44A7.16,7.16,0,0,0,438.46,105.36Zm2.39,2.46V102.5h.6v5.32Zm.82-4.25a8.27,8.27,0,0,0,1.65-2.48l.63.19c-.12.25-.24.48-.36.71h2.9v.55A7.25,7.25,0,0,1,445,104.1a7.89,7.89,0,0,0,2.21.69,3.63,3.63,0,0,0-.31.65,8.72,8.72,0,0,1-2.47-1,11.86,11.86,0,0,1-2.46,1.14c-.11-.18-.24-.38-.37-.57a9,9,0,0,0,2.32-.93,5.41,5.41,0,0,1-1-1.07,11.52,11.52,0,0,1-.75.92A3.79,3.79,0,0,0,441.67,103.57Zm4.77,3.44.39.49a12.75,12.75,0,0,1-4.85,2.31,4.74,4.74,0,0,0-.35-.57A12.68,12.68,0,0,0,446.44,107Zm-1.65-1.94.42.45a12.79,12.79,0,0,1-2.86,1.44,2.31,2.31,0,0,0-.4-.53A9.07,9.07,0,0,0,444.79,105.07Zm.86.9.41.47a14.16,14.16,0,0,1-3.61,1.92,6.14,6.14,0,0,0-.4-.55A11.15,11.15,0,0,0,445.65,106Zm0-3.44h-2.42v0a4.52,4.52,0,0,0,1.22,1.21A5,5,0,0,0,445.69,102.53Z"/><path d="M447.46,103.56a8,8,0,0,0,2.09-2.52h.77c-.14.25-.28.49-.43.72h6.18v.56H449.5c-.16.22-.33.42-.5.62h6.19v3.24h-.61V106h-5.17v.32h-.61v-3.09q-.45.5-.93.93A4.09,4.09,0,0,0,447.46,103.56Zm0,4.6a7.75,7.75,0,0,0,2.61-2h.78c-.13.16-.26.32-.4.47h4.76v.48a8.57,8.57,0,0,1-2.18,1.36,18,18,0,0,0,3.21.49l-.42.72a17.08,17.08,0,0,1-3.67-.87,28.38,28.38,0,0,1-3.78,1c-.11-.19-.25-.39-.4-.6a33.22,33.22,0,0,0,3.4-.71,6.92,6.92,0,0,1-1.66-1.09,8.86,8.86,0,0,1-1.81,1.25A4,4,0,0,0,447.46,108.16Zm7.12-4.67h-5.17v.69h5.17Zm-5.17,1.91h5.17v-.7h-5.17Zm4.79,1.74h-4a6.23,6.23,0,0,0,2,1.07A8.72,8.72,0,0,0,454.2,107.14Z"/></svg>